<svg width="51" height="50" viewBox="0 0 51 50" fill="none" xmlns="http://www.w3.org/2000/svg">
<path d="M40.45 22.5H32.5265C31.48 19.6 28.7391 17.5 25.5 17.5C22.2608 17.5 19.52 19.6 18.4735 22.5H10.55C9.72773 22.5 5.56665 22.25 5.56665 17.5V15C5.56665 10.425 9.40381 10 10.55 10H35.9151C36.9616 12.9 39.7025 15 42.9416 15C44.9241 15 46.8254 14.2098 48.2273 12.8033C49.6291 11.3968 50.4166 9.48912 50.4166 7.5C50.4166 5.51088 49.6291 3.60322 48.2273 2.1967C46.8254 0.790177 44.9241 0 42.9416 0C39.7025 0 36.9616 2.1 35.9151 5H10.55C6.5384 5 0.583313 7.65 0.583313 15V17.5C0.583313 24.85 6.5384 27.5 10.55 27.5H18.4735C19.52 30.4 22.2608 32.5 25.5 32.5C28.7391 32.5 31.48 30.4 32.5265 27.5H40.45C41.2722 27.5 45.4333 27.75 45.4333 32.5V35C45.4333 39.575 41.5961 40 40.45 40H15.0848C14.0383 37.1 11.2975 35 8.05831 35C6.07582 35 4.17452 35.7902 2.77269 37.1967C1.37086 38.6032 0.583313 40.5109 0.583313 42.5C0.583313 44.4891 1.37086 46.3968 2.77269 47.8033C4.17452 49.2098 6.07582 50 8.05831 50C11.2975 50 14.0383 47.9 15.0848 45H40.45C44.4616 45 50.4166 42.325 50.4166 35V32.5C50.4166 25.175 44.4616 22.5 40.45 22.5ZM42.9416 5C43.6025 5 44.2362 5.26339 44.7035 5.73223C45.1708 6.20107 45.4333 6.83696 45.4333 7.5C45.4333 8.16304 45.1708 8.79893 44.7035 9.26777C44.2362 9.73661 43.6025 10 42.9416 10C42.2808 10 41.647 9.73661 41.1798 9.26777C40.7125 8.79893 40.45 8.16304 40.45 7.5C40.45 6.83696 40.7125 6.20107 41.1798 5.73223C41.647 5.26339 42.2808 5 42.9416 5ZM8.05831 45C7.39748 45 6.76372 44.7366 6.29644 44.2678C5.82916 43.7989 5.56665 43.163 5.56665 42.5C5.56665 41.837 5.82916 41.2011 6.29644 40.7322C6.76372 40.2634 7.39748 40 8.05831 40C8.71914 40 9.35291 40.2634 9.82019 40.7322C10.2875 41.2011 10.55 41.837 10.55 42.5C10.55 43.163 10.2875 43.7989 9.82019 44.2678C9.35291 44.7366 8.71914 45 8.05831 45Z" fill="#0024A5"/>
</svg>
