<svg width="56" height="42" viewBox="0 0 56 42" fill="none" xmlns="http://www.w3.org/2000/svg">
<path d="M44.8023 0.376132C44.1322 0.42832 43.4918 0.67448 42.9592 1.08456C42.4266 1.49464 42.025 2.0509 41.8033 2.68544C41.5816 3.31998 41.5494 4.00534 41.7107 4.65785C41.872 5.31037 42.2197 5.90181 42.7116 6.35998C44.6361 8.28072 46.162 10.5629 47.2016 13.0754C48.2412 15.5878 48.774 18.281 48.7692 21C48.7724 23.7188 48.239 26.4115 47.1995 28.9237C46.16 31.436 44.6349 33.7183 42.7116 35.64C42.3773 35.9592 42.1102 36.342 41.926 36.7659C41.7418 37.1898 41.6441 37.6463 41.6388 38.1084C41.6335 38.5706 41.7206 39.0292 41.895 39.4572C42.0694 39.8852 42.3276 40.2741 42.6545 40.6009C42.9813 40.9277 43.3701 41.186 43.7982 41.3604C44.2262 41.5348 44.6848 41.6219 45.1469 41.6166C45.6091 41.6113 46.0656 41.5136 46.4895 41.3294C46.9134 41.1452 47.2962 40.8781 47.6154 40.5438C52.7886 35.3551 55.6935 28.327 55.6935 21C55.6935 13.673 52.7886 6.64487 47.6154 1.45613C47.299 1.12166 46.9191 0.853663 46.4979 0.667821C46.0767 0.48198 45.6226 0.382031 45.1623 0.373824C45.0424 0.36758 44.9222 0.36758 44.8023 0.373824V0.376132ZM10.4039 0.445363C9.63672 0.547106 8.9258 0.902973 8.38463 1.45613C3.21145 6.64487 0.306488 13.673 0.306488 21C0.306488 28.327 3.21145 35.3551 8.38463 40.5438C8.70385 40.8781 9.08665 41.1452 9.51056 41.3294C9.93446 41.5136 10.3909 41.6113 10.8531 41.6166C11.3153 41.6219 11.7738 41.5348 12.2019 41.3604C12.6299 41.186 13.0187 40.9277 13.3456 40.6009C13.6724 40.2741 13.9306 39.8852 14.105 39.4572C14.2794 39.0292 14.3665 38.5706 14.3612 38.1084C14.3559 37.6463 14.2583 37.1898 14.074 36.7659C13.8898 36.342 13.6227 35.9592 13.2885 35.64C11.3639 33.7192 9.838 31.437 8.79841 28.9246C7.75882 26.4122 7.22607 23.719 7.23078 21C7.22758 18.2812 7.76102 15.5885 8.80053 13.0762C9.84003 10.564 11.3652 8.28163 13.2885 6.35998C13.8117 5.85181 14.1611 5.19132 14.2867 4.4728C14.4123 3.75427 14.3077 3.01443 13.9879 2.35888C13.668 1.70332 13.1493 1.16556 12.5057 0.82234C11.862 0.479122 11.1264 0.347993 10.4039 0.44767V0.445363ZM19.2031 8.09075C18.4441 8.17236 17.7334 8.50257 17.1816 9.02998C15.5069 10.543 14.1671 12.3894 13.2482 14.4509C12.3294 16.5123 11.8518 18.7431 11.8462 21C11.8462 25.7261 13.8539 30.0231 17.11 32.9723C17.4464 33.28 17.8401 33.5185 18.2687 33.6741C18.6972 33.8297 19.1522 33.8994 19.6077 33.8791C20.0631 33.8589 20.5102 33.7491 20.9232 33.5561C21.3363 33.3631 21.7073 33.0906 22.015 32.7542C22.3228 32.4178 22.5612 32.0241 22.7168 31.5956C22.8724 31.167 22.9421 30.712 22.9218 30.2565C22.9016 29.8011 22.7918 29.354 22.5988 28.941C22.4058 28.5279 22.1333 28.157 21.7969 27.8492C20.8389 26.9847 20.074 25.9279 19.5523 24.7476C19.0306 23.5674 18.7638 22.2904 18.7692 21C18.7645 19.7091 19.0318 18.4318 19.5539 17.2512C20.076 16.0707 20.8411 15.0134 21.7992 14.1484C22.3523 13.6673 22.7383 13.0231 22.9017 12.3085C23.0651 11.5939 22.9975 10.8459 22.7085 10.1723C22.4195 9.49861 21.9242 8.93407 21.2938 8.55999C20.6634 8.18592 19.9305 8.02161 19.2008 8.09075H19.2031ZM36.2939 8.09075C35.6074 8.1286 34.9477 8.37002 34.3989 8.78425C33.8502 9.19847 33.4372 9.76673 33.2127 10.4166C32.9881 11.0664 32.9622 11.7684 33.1382 12.433C33.3142 13.0977 33.6841 13.6949 34.2008 14.1484C35.1595 15.013 35.925 16.0701 36.4471 17.2508C36.9692 18.4314 37.2363 19.709 37.2308 21C37.2356 22.2908 36.9682 23.5682 36.4461 24.7487C35.924 25.9293 35.1589 26.9865 34.2008 27.8515C33.8151 28.1396 33.4937 28.5049 33.2572 28.9242C33.0207 29.3435 32.8742 29.8075 32.8272 30.2866C32.7801 30.7657 32.8335 31.2494 32.984 31.7067C33.1344 32.1639 33.3786 32.5848 33.7009 32.9424C34.0232 33.3 34.4165 33.5864 34.8558 33.7834C35.295 33.9804 35.7705 34.0836 36.2519 34.0864C36.7333 34.0892 37.21 33.9916 37.6515 33.7997C38.0931 33.6079 38.4897 33.3261 38.8162 32.9723C40.4916 31.4593 41.832 29.6125 42.7512 27.5506C43.6705 25.4888 44.1482 23.2575 44.1539 21C44.1624 18.7472 43.6984 16.5178 42.7917 14.4556C41.885 12.3933 40.5558 10.5442 38.89 9.02767C38.5447 8.70179 38.136 8.45045 37.6894 8.28927C37.2427 8.12808 36.7677 8.06051 36.2939 8.09075ZM28 16.8184C27.1731 16.8189 26.3648 17.0645 25.6775 17.5243C24.9902 17.984 24.4546 18.6373 24.1384 19.4014C23.8223 20.1655 23.7398 21.0062 23.9014 21.8172C24.063 22.6282 24.4615 23.373 25.0463 23.9576C25.6312 24.5422 26.3763 24.9402 27.1874 25.1013C27.9985 25.2625 28.8391 25.1796 29.6031 24.863C30.367 24.5464 31.0199 24.0105 31.4793 23.3229C31.9387 22.6353 32.1839 21.8269 32.1839 21C32.1848 20.4503 32.0772 19.9058 31.8672 19.3978C31.6573 18.8898 31.3492 18.4282 30.9605 18.0395C30.5718 17.6508 30.1102 17.3427 29.6022 17.1328C29.0942 16.9228 28.5497 16.8152 28 16.8161V16.8184Z" fill="#0024A5"/>
</svg>
