<svg width="50" height="56" viewBox="0 0 50 56" fill="none" xmlns="http://www.w3.org/2000/svg">
<path d="M25 0.5L0.89286 10.5V25.5C0.89286 39.375 11.1786 52.35 25 55.5C38.8214 52.35 49.1071 39.375 49.1071 25.5V10.5L25 0.5ZM25 10.5C27.1312 10.5 29.1751 11.2902 30.6821 12.6967C32.1891 14.1032 33.0357 16.0109 33.0357 18C33.0357 19.9891 32.1891 21.8968 30.6821 23.3033C29.1751 24.7098 27.1312 25.5 25 25.5C22.8688 25.5 20.8249 24.7098 19.3179 23.3033C17.8109 21.8968 16.9643 19.9891 16.9643 18C16.9643 16.0109 17.8109 14.1032 19.3179 12.6967C20.8249 11.2902 22.8688 10.5 25 10.5ZM38.7411 40.5C35.4957 45.1367 30.646 48.5954 25 50.3C19.354 48.5954 14.5043 45.1367 11.2589 40.5C10.3482 39.25 9.57143 38 8.92857 36.675C8.92857 32.55 16.1875 29.175 25 29.175C33.8125 29.175 41.0714 32.475 41.0714 36.675C40.4286 38 39.6518 39.25 38.7411 40.5Z" fill="#0024A5"/>
</svg>
