<?xml version="1.0" encoding="utf-8"?>
<!-- Generator: Adobe Illustrator 22.0.1, SVG Export Plug-In . SVG Version: 6.00 Build 0)  -->
<svg version="1.1" id="Слой_1" xmlns="http://www.w3.org/2000/svg" xmlns:xlink="http://www.w3.org/1999/xlink" x="0px" y="0px"
	 viewBox="0 0 277.8 274.2" style="enable-background:new 0 0 277.8 274.2;" xml:space="preserve">
<style type="text/css">
	.st0{fill:#C4E6F8;}
	.st1{fill:#5A4593;}
	.st2{fill:#D3E2F5;}
	.st3{fill:#363152;}
	.st4{fill:#2F2D3A;}
	.st5{fill:#3B396D;}
	.st6{fill:#F4FAFE;}
	.st7{fill:#FAD0B5;}
	.st8{fill:#52C0D6;}
	.st9{fill:#39334F;}
	.st10{fill:#F39B8E;}
	.st11{fill:#47BED7;}
	.st12{fill:#E8F4F8;}
	.st13{fill:#A1C7EA;}
	.st14{fill:url(#SVGID_1_);}
	.st15{fill:url(#SVGID_2_);}
	.st16{fill:url(#SVGID_3_);}
	.st17{fill:#514291;}
	.st18{fill:url(#SVGID_4_);}
	.st19{fill:url(#SVGID_5_);}
	.st20{fill:#E73844;}
	.st21{fill:#BD312D;}
	.st22{fill:url(#SVGID_6_);}
	.st23{fill:url(#SVGID_7_);}
	.st24{fill:#F5C123;}
	.st25{fill:#F59E28;}
	.st26{fill:url(#SVGID_8_);}
	.st27{fill:url(#SVGID_9_);}
	.st28{fill:#6CBA76;}
	.st29{fill:#13A263;}
	.st30{fill:#F3C921;}
	.st31{fill:#3EB182;}
	.st32{fill:#5CC1D2;}
	.st33{fill:#E83F81;}
</style>
<g id="Слой_x0020_1">
	<g id="_1906245309376">
		<path class="st0" d="M0,20.7h110.4V77c0,6.1-5,11.1-11.1,11.1H11.1C5,88.1,0,83.1,0,77L0,20.7L0,20.7z"/>
		<path class="st1" d="M13.6,26.8H99c3,0,5.5,2.5,5.5,5.6v43.4c0,3.1-2.5,5.6-5.5,5.6H13.6c-3,0-5.5-2.5-5.5-5.6V32.4
			C8.1,29.3,10.5,26.8,13.6,26.8z"/>
		<polygon class="st2" points="227,118 217.7,176 232.7,176 230.2,116.2 		"/>
		<path class="st3" d="M251.6,159.8l-89.9,3.5l-51.5,80.3l4.1,2.5c0,0,40-18.7,60.2-59.8c36.8,4.6,95.6-5.9,95.6-5.9l1.9-15.1
			L251.6,159.8L251.6,159.8z"/>
		<polygon class="st4" points="114.3,246.1 110.2,254.9 82.4,235 110.2,243.6 		"/>
		<path class="st5" d="M166.1,265l-6.7-2.1l15.5-91.4l49.4,0.4l53.2,8.3c0,0,3.2,11.3-13.8,22.6c-14.2,9.5-31,3.7-31,3.7l-37.4-14.1
			C197.2,203.6,192.4,228.2,166.1,265L166.1,265z"/>
		<path class="st3" d="M226.2,172.2c0,0,13,27.2,48.4,19.7c3.3-6.3,3-11.6,3-11.6L226.2,172.2z"/>
		<polygon class="st4" points="159.5,263 125.2,270.2 165.6,274.2 166.1,265 		"/>
		<path class="st6" d="M232.1,87.5c0,0,9.5,9.9,11.4,29.3c0,0-51.9,11.5-96.4-36.8l7-9.6C154.2,70.5,199.3,99.6,232.1,87.5z"/>
		<path class="st2" d="M220.2,117.6l10.1-28.8l0.3,29.2C227.6,118,224,117.9,220.2,117.6L220.2,117.6z"/>
		<path class="st7" d="M149.1,68l-10.4-7.5l-25.2,0c0,0-1.3,5.2,16.5,4.7l-1.1,5.4l5.6,6.9l9.8-0.7l2.3,1.8L149.1,68L149.1,68z"/>
		<polygon class="st8" points="141.9,76.3 149.1,66.9 154.2,70.5 147.2,80 		"/>
		<path class="st7" d="M213,38c0,0-4.8,13.2-3.5,30.9c0,0,6.9,3.6,19.1,1l3.4,15.9c0,0,10.6-2.6,12.5-5.4c0.9-1.3,0.2-6.3,0.2-6.3
			l-2.4-11l-3.6,0.1l1.3-5.1c0,0,4.8-1.4,5.4-6.8c0.6-5.4-4.9-2.9-6.2-2l-1.3,3.6c0,0-1-7.3,2.9-10.1l-3-6.7
			C237.9,36.1,227.4,40.9,213,38L213,38z"/>
		<path class="st9" d="M240.9,42.8l-1.9-4.3c4.1-5.6-7.8-14.3-7-21.3c19.3,3.9,21.4,17.4,21.4,17.4c8.5,19.4-7.6,27-7.6,27
			c-0.6,3.7-2.6,5.1-2.6,5.1l-0.8-3.7l-3.6,0.1l1.3-5.1c4.2-2,6.6-7.2,4.4-9.2c-2.2-2-5.1,0.4-5.1,0.4l-1.3,3.6
			C236.6,45,240.9,42.8,240.9,42.8L240.9,42.8z"/>
		<path class="st9" d="M223.8,41.6c1.1,2.8,6,3.5,11,1.6c4.9-2,8-5.9,6.9-8.7c-1.1-2.8-6-3.5-11-1.6
			C225.8,34.9,222.7,38.8,223.8,41.6z"/>
		<path class="st9" d="M235.2,43.7c0.5,1.3,2.8,1.6,5.1,0.7c2.3-0.9,3.7-2.7,3.2-4c-0.5-1.3-2.8-1.6-5-0.7
			C236.1,40.6,234.7,42.4,235.2,43.7z"/>
		<path class="st9" d="M214.3,38.3c0.7,2.4,5.1,3.3,10,2c4.9-1.3,8.3-4.3,7.6-6.8c-0.7-2.4-5.1-3.3-10-2
			C217,32.8,213.6,35.9,214.3,38.3z"/>
		<path class="st9" d="M205.9,37c0.7,2.4,5.1,3.3,10,2c4.9-1.3,8.3-4.3,7.6-6.8c-0.7-2.4-5.1-3.3-10-2
			C208.7,31.5,205.3,34.6,205.9,37L205.9,37z"/>
		<path class="st9" d="M205.7,20.3c-1.5,3.9,3.7,9.5,11.5,12.5c7.9,3,28.8,7.2,30.3,3.3c1.5-3.9,0.7-15.3-21-20.4
			C218.4,13.7,207.2,16.4,205.7,20.3L205.7,20.3z"/>
		<polygon class="st10" points="218,45.8 220,55 215.7,55.9 		"/>
		<path class="st10" d="M219,64.4c0.5,0,0.9,0,1.4-0.1c3.1-0.7,5.2-3.4,5.1-6.6c0-0.7-0.6-1.2-1.2-1.1c-0.7,0-1.2,0.6-1.1,1.2
			c0.1,2-1.3,3.7-3.2,4.1c-1.9,0.4-3.9-0.6-4.6-2.4c-0.2-0.6-0.9-0.9-1.6-0.7c-0.6,0.2-0.9,0.9-0.7,1.6
			C214.1,62.8,216.5,64.4,219,64.4L219,64.4z"/>
		<path class="st8" d="M277.6,180.3c0,0,3.1,7.7-18.2,5.8c-36.1-3.3-34.1-26.3-34.1-26.3l3.5-68.5c0,0,0.1-2.7,3.2-5.6
			c3.7-3.4,11.6-4,12.7-11.7c10.6-0.5,21,16.6,26.7,36C277.7,131.7,277.6,180.3,277.6,180.3L277.6,180.3z"/>
		<path class="st11" d="M263.8,163.6L263.8,163.6c0-1.5-0.6-48.8-2.6-60.1c-1.7-10.2-5.6-19.7-14.6-19.7h-0.1h-0.1
			c-1.2,0-2.5,0.2-3.9,0.6c-12.3,3.2-7.9,20.6-7.9,20.6l9.4,39.9l-13.9,1.7l1.6,21.5C252.1,167.5,263.8,163.6,263.8,163.6
			L263.8,163.6z"/>
		<path class="st6" d="M231.5,104.7c0,0-2.9-17.8,10.3-19.9c13-2.1,16.8,9.4,17.5,21.3c0.7,11.6-4.1,58.5-4.1,58.5
			s-34.2,5.8-82.2-13l0.6-8l63.6,0.7L231.5,104.7z"/>
		<path class="st7" d="M168.6,143.9l-14.4-1.7l-11.9,5l-1.7,14.7c0,0,3.4,1,4.6-7.7l3.3-0.7c0,0,6.3,2.7,11,1.4
			c4.7-1.3,9.5-1.9,9.5-1.9L168.6,143.9z"/>
		<polygon class="st8" points="169,152.9 175.6,152.7 175.2,143.6 168.6,143.9 		"/>
		<path class="st8" d="M109.1,131.6c1.3,0.4,2.1,1.8,2.1,1.8l19.6,33.9l-2.7,1.3l-21.2-36.7C106.9,131.8,107.7,131.2,109.1,131.6
			L109.1,131.6z"/>
		<path class="st12" d="M107.7,130.7c1.5,0.4,2.3,2,2.3,2l21.7,37.5l-3,1.4L105.2,131C105.2,131,106.1,130.3,107.7,130.7
			L107.7,130.7z"/>
		<polygon class="st12" points="181.5,160.1 128.8,171.6 128,167.9 180.7,156.5 		"/>
		<path class="st13" d="M43.8,87.9L43.8,87.9l-11.6-6.7h0L43.8,87.9L43.8,87.9z M8,67.1l-8-4.6v0L8,67.1L8,67.1z"/>
		
			<linearGradient id="SVGID_1_" gradientUnits="userSpaceOnUse" x1="20772.0684" y1="1088.7793" x2="20772.0684" y2="16776.2793" gradientTransform="matrix(2.834646e-02 0 0 -2.834646e-02 -557.4066 253.2645)">
			<stop  offset="0" style="stop-color:#B0DFF8"/>
			<stop  offset="1" style="stop-color:#C7E7F7"/>
		</linearGradient>
		<path class="st14" d="M55,0.1L7.8,0c0,0,0.1,0,0.1,0c0,0,0,0,0,0L55,0.1L55,0.1z"/>
		
			<linearGradient id="SVGID_2_" gradientUnits="userSpaceOnUse" x1="21611.9219" y1="-40995.1836" x2="21611.9219" y2="16038.5" gradientTransform="matrix(2.834646e-02 0 0 -2.834646e-02 -557.4066 253.2645)">
			<stop  offset="0" style="stop-color:#54C1DA"/>
			<stop  offset="1" style="stop-color:#5EC3D9"/>
		</linearGradient>
		<path class="st15" d="M0,20.6L0,20.6v-15C0,2.5,2.5,0,5.6,0h0l2.2,0C3.5,0,0,3.6,0,7.9V20.6z M110.4,7.8c-0.1-4.3-3.6-7.7-7.9-7.7
			L55,0.1l49.9,0.1c3.1,0,5.6,2.5,5.6,5.6V7.8z"/>
		
			<linearGradient id="SVGID_3_" gradientUnits="userSpaceOnUse" x1="21612.1367" y1="-40995.418" x2="21612.1367" y2="16038.5391" gradientTransform="matrix(2.834646e-02 0 0 -2.834646e-02 -557.4066 253.2645)">
			<stop  offset="0" style="stop-color:#51C0D9"/>
			<stop  offset="1" style="stop-color:#55C1D8"/>
		</linearGradient>
		<path class="st16" d="M110.4,20.7L0,20.6V7.9C0,3.6,3.5,0,7.8,0L55,0.1l47.6,0.1c4.3,0,7.8,3.5,7.9,7.7L110.4,20.7L110.4,20.7z
			 M43.3,4.8c-3.1,0-5.6,2.5-5.6,5.6c0,3.1,2.5,5.6,5.6,5.6h0c3.1,0,5.6-2.5,5.6-5.6C48.8,7.3,46.3,4.8,43.3,4.8L43.3,4.8z
			 M27.1,4.7c-3.1,0-5.6,2.5-5.6,5.6c0,3.1,2.5,5.6,5.6,5.6c0,0,0,0,0,0c3.1,0,5.6-2.5,5.6-5.6C32.7,7.2,30.2,4.8,27.1,4.7
			C27.1,4.7,27.1,4.7,27.1,4.7z M11,4.7c-3.1,0-5.6,2.5-5.6,5.6c0,3.1,2.5,5.6,5.6,5.6c0,0,0,0,0,0c3.1,0,5.6-2.5,5.6-5.6
			C16.6,7.2,14.1,4.7,11,4.7C11,4.7,11,4.7,11,4.7z"/>
		<polygon class="st17" points="32.2,81.2 32.2,81.2 8,67.1 8,67.1 		"/>
		
			<linearGradient id="SVGID_4_" gradientUnits="userSpaceOnUse" x1="20053.3613" y1="-40995.1836" x2="20053.3613" y2="16038.5" gradientTransform="matrix(2.834646e-02 0 0 -2.834646e-02 -557.4066 253.2645)">
			<stop  offset="0" style="stop-color:#07ADDB"/>
			<stop  offset="1" style="stop-color:#05AFDA"/>
		</linearGradient>
		<path class="st18" d="M11,15.9C11,15.9,11,15.9,11,15.9c-3.1,0-5.6-2.5-5.6-5.6C5.5,7.2,8,4.7,11,4.7c0,0,0,0,0,0
			c3.1,0,5.6,2.5,5.6,5.6C16.6,13.4,14.1,15.9,11,15.9z M11,6c-2.4,0-4.3,1.9-4.3,4.3c0,2.4,1.9,4.3,4.3,4.3h0
			c2.4,0,4.3-1.9,4.3-4.3C15.3,7.9,13.4,6,11,6C11,6,11,6,11,6z"/>
		
			<linearGradient id="SVGID_5_" gradientUnits="userSpaceOnUse" x1="20053.2754" y1="-40994.4023" x2="20053.2754" y2="16038.3789" gradientTransform="matrix(2.834646e-02 0 0 -2.834646e-02 -557.4066 253.2645)">
			<stop  offset="0" style="stop-color:#21BAD6"/>
			<stop  offset="1" style="stop-color:#2DBBD7"/>
		</linearGradient>
		<path class="st19" d="M11,14.6L11,14.6c-2.4,0-4.3-1.9-4.3-4.3C6.7,7.9,8.7,6,11,6c0,0,0,0,0,0c2.4,0,4.3,1.9,4.3,4.3
			C15.3,12.7,13.4,14.6,11,14.6z"/>
		<path class="st20" d="M14.5,10.3c0,1.9-1.6,3.5-3.5,3.5c-1.9,0-3.5-1.6-3.5-3.5c0-1.9,1.6-3.5,3.5-3.5C13,6.8,14.5,8.4,14.5,10.3
			L14.5,10.3z"/>
		<path class="st21" d="M13.1,10.3c0,1.2-0.9,2.1-2.1,2.1c-1.2,0-2.1-0.9-2.1-2.1c0-1.2,0.9-2.1,2.1-2.1
			C12.2,8.2,13.1,9.1,13.1,10.3L13.1,10.3z"/>
		
			<linearGradient id="SVGID_6_" gradientUnits="userSpaceOnUse" x1="20621.5605" y1="-40995.1836" x2="20621.5605" y2="16038.5" gradientTransform="matrix(2.834646e-02 0 0 -2.834646e-02 -557.4066 253.2645)">
			<stop  offset="0" style="stop-color:#07ADDB"/>
			<stop  offset="1" style="stop-color:#05AFDA"/>
		</linearGradient>
		<path class="st22" d="M27.1,15.9C27.1,15.9,27.1,15.9,27.1,15.9c-3.1,0-5.6-2.5-5.6-5.6c0-3.1,2.5-5.6,5.6-5.6c0,0,0,0,0,0
			c3.1,0,5.6,2.5,5.6,5.6C32.7,13.4,30.2,15.9,27.1,15.9z M27.1,6c-2.4,0-4.3,1.9-4.3,4.3c0,2.4,1.9,4.3,4.3,4.3h0
			c2.4,0,4.3-1.9,4.3-4.3C31.5,7.9,29.5,6,27.1,6C27.1,6,27.1,6,27.1,6z"/>
		
			<linearGradient id="SVGID_7_" gradientUnits="userSpaceOnUse" x1="20621.6406" y1="-40996.0117" x2="20621.6406" y2="16038.6484" gradientTransform="matrix(2.834646e-02 0 0 -2.834646e-02 -557.4066 253.2645)">
			<stop  offset="0" style="stop-color:#21BAD6"/>
			<stop  offset="1" style="stop-color:#2DBBD7"/>
		</linearGradient>
		<path class="st23" d="M27.1,14.6L27.1,14.6c-2.4,0-4.3-1.9-4.3-4.3c0-2.4,1.9-4.3,4.3-4.3c0,0,0,0,0,0c2.4,0,4.3,1.9,4.3,4.3
			C31.5,12.7,29.5,14.6,27.1,14.6z"/>
		<path class="st24" d="M30.7,10.3c0,1.9-1.6,3.5-3.5,3.5c-1.9,0-3.5-1.6-3.5-3.5c0-1.9,1.6-3.5,3.5-3.5
			C29.1,6.8,30.7,8.4,30.7,10.3z"/>
		<path class="st25" d="M29.3,10.3c0,1.2-0.9,2.1-2.1,2.1c-1.2,0-2.1-1-2.1-2.1c0-1.2,1-2.1,2.1-2.1C28.3,8.2,29.3,9.1,29.3,10.3z"
			/>
		
			<linearGradient id="SVGID_8_" gradientUnits="userSpaceOnUse" x1="21189.8457" y1="-40995.5742" x2="21189.8457" y2="16038.5781" gradientTransform="matrix(2.834646e-02 0 0 -2.834646e-02 -557.4066 253.2645)">
			<stop  offset="0" style="stop-color:#07ADDB"/>
			<stop  offset="1" style="stop-color:#05AFDA"/>
		</linearGradient>
		<path class="st26" d="M43.3,15.9L43.3,15.9c-3.1,0-5.6-2.5-5.6-5.6c0-3.1,2.5-5.6,5.6-5.6l0,0c3.1,0,5.6,2.5,5.6,5.6
			C48.8,13.4,46.3,15.9,43.3,15.9z M43.3,6c-2.4,0-4.3,1.9-4.3,4.3c0,2.4,1.9,4.3,4.3,4.3c0,0,0,0,0,0c2.4,0,4.3-1.9,4.3-4.3
			C47.6,7.9,45.6,6,43.3,6L43.3,6L43.3,6z"/>
		
			<linearGradient id="SVGID_9_" gradientUnits="userSpaceOnUse" x1="21189.8457" y1="-40994.7539" x2="21189.8457" y2="16038.457" gradientTransform="matrix(2.834646e-02 0 0 -2.834646e-02 -557.4066 253.2645)">
			<stop  offset="0" style="stop-color:#21BAD6"/>
			<stop  offset="1" style="stop-color:#2DBBD7"/>
		</linearGradient>
		<path class="st27" d="M43.3,14.6C43.2,14.6,43.2,14.6,43.3,14.6c-2.4,0-4.3-1.9-4.3-4.3c0-2.4,1.9-4.3,4.3-4.3l0,0
			c2.4,0,4.3,1.9,4.3,4.3C47.6,12.7,45.6,14.6,43.3,14.6L43.3,14.6z"/>
		<path class="st28" d="M46.8,10.3c0,1.9-1.6,3.5-3.5,3.5c-1.9,0-3.5-1.6-3.5-3.5c0-1.9,1.6-3.5,3.5-3.5
			C45.2,6.8,46.8,8.4,46.8,10.3z"/>
		<path class="st29" d="M45.4,10.3c0,1.2-1,2.1-2.1,2.1c-1.2,0-2.1-1-2.1-2.1c0-1.2,1-2.1,2.1-2.1C44.4,8.2,45.4,9.2,45.4,10.3z"/>
		<polygon class="st30" points="17.5,41.7 16.9,41.5 12.6,37.2 12.4,36.6 12.6,36.1 16.9,31.7 18,31.7 18,32.8 14.3,36.6 18,40.4 
			18,41.5 		"/>
		<polygon class="st30" points="28.4,41.7 27.8,41.5 27.8,40.4 31.6,36.6 27.8,32.8 27.8,31.7 28.9,31.7 33.2,36.1 33.5,36.6 
			33.2,37.2 28.9,41.5 		"/>
		<path class="st30" d="M21.1,42.5l-0.3,0c-0.4-0.1-0.6-0.6-0.5-1l3.4-9.4c0.1-0.4,0.6-0.6,1-0.5c0.4,0.1,0.6,0.6,0.5,1l-3.4,9.4
			L21.1,42.5z"/>
		<path class="st30" d="M38.5,41.8L38.5,41.8L38.5,41.8z M37.3,40.9c-0.5,0-0.8,0.4-0.8,0.8c0,0.5,0.4,0.8,0.8,0.8
			c0.5,0,0.8-0.4,0.8-0.8C38.1,41.3,37.7,40.9,37.3,40.9z M37.3,43.4L37.3,43.4c-0.9,0-1.6-0.7-1.6-1.6c0-0.9,0.7-1.6,1.6-1.6
			c0.9,0,1.6,0.7,1.6,1.6v0C38.9,42.7,38.2,43.4,37.3,43.4z"/>
		<path class="st30" d="M42.3,40.9l-0.6,0.2l-0.2,0.6l0.2,0.6l0.6,0.2l0.6-0.2l0.2-0.6C43.1,41.3,42.8,40.9,42.3,40.9L42.3,40.9z
			 M42.3,43.4L42.3,43.4c-0.4,0-0.8-0.2-1.1-0.5c-0.3-0.3-0.5-0.7-0.5-1.1c0-0.4,0.2-0.8,0.5-1.1c0.3-0.3,0.7-0.5,1.1-0.5h0
			c0.9,0,1.6,0.7,1.6,1.6c0,0.4-0.2,0.8-0.5,1.1C43.2,43.2,42.7,43.4,42.3,43.4z"/>
		<path class="st30" d="M48.6,41.8L48.6,41.8L48.6,41.8z M47.4,40.9c-0.5,0-0.8,0.4-0.8,0.8c0,0.5,0.4,0.8,0.8,0.8
			c0.5,0,0.8-0.4,0.8-0.8C48.2,41.3,47.8,40.9,47.4,40.9z M47.4,43.4L47.4,43.4c-0.9,0-1.6-0.7-1.6-1.6c0-0.9,0.7-1.6,1.6-1.6
			c0.9,0,1.6,0.7,1.6,1.6S48.3,43.4,47.4,43.4z"/>
		<path class="st31" d="M86.7,51.4L86.7,51.4l-71.4-0.1c-0.4,0-0.8-0.4-0.8-0.8c0-0.4,0.3-0.8,0.8-0.8h0l71.4,0.1
			c0.4,0,0.8,0.3,0.8,0.8C87.5,51,87.1,51.4,86.7,51.4L86.7,51.4z"/>
		<path class="st31" d="M97.9,51.4L97.9,51.4l-3.3,0c-0.4,0-0.8-0.4-0.8-0.8c0-0.4,0.3-0.8,0.8-0.8l3.3,0c0.4,0,0.8,0.4,0.8,0.8
			C98.6,51.1,98.3,51.4,97.9,51.4z"/>
		<path class="st32" d="M65.5,61.6L65.5,61.6l-50.2-0.1c-0.4,0-0.8-0.3-0.8-0.8c0-0.4,0.3-0.8,0.8-0.8L65.5,60
			c0.4,0,0.8,0.3,0.8,0.8C66.3,61.3,66,61.6,65.5,61.6z"/>
		<path class="st32" d="M80.7,61.6h-3.1c-0.4,0-0.8-0.3-0.8-0.8c0-0.4,0.3-0.8,0.8-0.8l3.1,0c0.4,0,0.8,0.3,0.8,0.8
			C81.5,61.3,81.2,61.6,80.7,61.6z"/>
		<path class="st32" d="M65.5,67.5L65.5,67.5l-8,0c-0.4,0-0.8-0.4-0.8-0.8c0-0.4,0.3-0.8,0.8-0.8l8,0c0.4,0,0.8,0.3,0.8,0.8
			C66.3,67.1,66,67.5,65.5,67.5L65.5,67.5z"/>
		<path class="st32" d="M51.2,67.5L51.2,67.5l-8,0c-0.4,0-0.8-0.3-0.8-0.8c0-0.4,0.3-0.8,0.8-0.8l8,0c0.4,0,0.8,0.3,0.8,0.8
			C52,67.1,51.7,67.5,51.2,67.5z"/>
		<path class="st32" d="M35.4,67.4L35.4,67.4l-8,0c-0.4,0-0.8-0.3-0.8-0.8c0-0.4,0.3-0.8,0.8-0.8l8,0c0.4,0,0.8,0.3,0.8,0.8
			C36.1,67.1,35.8,67.4,35.4,67.4z"/>
		<path class="st33" d="M92.1,74.7L92.1,74.7l-64.7-0.1c-0.4,0-0.8-0.3-0.8-0.8c0-0.4,0.3-0.8,0.8-0.8l64.7,0.1
			c0.4,0,0.8,0.3,0.8,0.8C92.9,74.3,92.5,74.7,92.1,74.7L92.1,74.7z"/>
		<path class="st32" d="M18.2,67.4h-2.9c-0.4,0-0.8-0.3-0.8-0.8c0-0.4,0.3-0.8,0.8-0.8h2.9c0.4,0,0.8,0.4,0.8,0.8
			C19,67.1,18.6,67.4,18.2,67.4L18.2,67.4z"/>
		<path class="st32" d="M18.2,74.6h-2.9c-0.4,0-0.8-0.3-0.8-0.8c0-0.4,0.3-0.8,0.8-0.8h2.9c0.4,0,0.8,0.3,0.8,0.8
			C18.9,74.2,18.6,74.6,18.2,74.6z"/>
	</g>
</g>
</svg>
