<svg width="17" height="44" viewBox="0 0 17 44" fill="none" xmlns="http://www.w3.org/2000/svg">
<path d="M8.44097 30C10.7824 30 12.7943 29.1797 14.4766 27.5391C16.1589 25.8984 17 23.9258 17 21.6211L17 8.37891C17 6.07422 16.1589 4.10156 14.4766 2.46094C12.7943 0.820312 10.7824 -5.43559e-07 8.44097 -7.48254e-07C6.11922 -9.51229e-07 4.13195 0.820311 2.47917 2.46094C0.826392 4.10156 2.09166e-06 6.07422 1.89018e-06 8.3789L7.32507e-07 21.6211C5.31025e-07 23.9258 0.82639 25.8984 2.47917 27.5391C4.13194 29.1797 6.11921 30 8.44097 30ZM1.88889 8.3789C1.88889 6.58203 2.52836 5.04883 3.80729 3.7793C5.08623 2.50976 6.63079 1.875 8.44097 1.875C10.2708 1.875 11.84 2.51465 13.1484 3.79394C14.4569 5.07324 15.1111 6.60156 15.1111 8.37891L15.1111 21.6211C15.1111 23.3984 14.4569 24.9268 13.1484 26.2061C11.84 27.4854 10.2708 28.125 8.44097 28.125C6.63079 28.125 5.08623 27.4902 3.80729 26.2207C2.52836 24.9512 1.88889 23.418 1.88889 21.6211L1.88889 8.3789ZM8.48524 24.375C8.75087 24.375 8.97714 24.2822 9.16406 24.0967C9.35098 23.9111 9.44445 23.6914 9.44445 23.4375L9.44445 18.75C9.44445 18.4961 9.35098 18.2764 9.16406 18.0908C8.97714 17.9053 8.75087 17.8125 8.48524 17.8125C8.21962 17.8125 7.99826 17.9053 7.82118 18.0908C7.6441 18.2764 7.55556 18.4961 7.55556 18.75L7.55556 23.4375C7.55556 23.6914 7.6441 23.9111 7.82118 24.0967C7.99826 24.2822 8.21962 24.375 8.48524 24.375Z" fill="white"/>
<path d="M8.67322 37.6134C8.36785 37.589 8.11616 37.4691 7.91817 37.2536C7.72018 37.0382 7.63821 36.795 7.67226 36.5241C7.70631 36.2533 7.83694 36.0308 8.06416 35.8567L12.259 32.6428C12.4862 32.4687 12.7488 32.3899 13.0468 32.4063C13.3449 32.4227 13.5929 32.5386 13.7909 32.7541C13.9889 32.9695 14.0745 33.2167 14.0478 33.4955C14.0211 33.7743 13.8941 34.0008 13.6669 34.1749L9.4721 37.3888C9.24489 37.5629 8.97859 37.6378 8.67322 37.6134Z" fill="white"/>
<path d="M8.83264 37.6134C9.13801 37.589 9.38969 37.4691 9.58769 37.2536C9.78568 37.0382 9.86765 36.795 9.8336 36.5241C9.79955 36.2533 9.66892 36.0308 9.4417 35.8567L5.2469 32.6428C5.01968 32.4687 4.75705 32.3899 4.45901 32.4063C4.16097 32.4227 3.91296 32.5386 3.71496 32.7541C3.51697 32.9695 3.43133 33.2167 3.45805 33.4955C3.48477 33.7743 3.61173 34.0008 3.83895 34.1749L8.03375 37.3888C8.26097 37.5629 8.52727 37.6378 8.83264 37.6134Z" fill="white"/>
<path d="M8.67322 42.6134C8.36785 42.589 8.11617 42.4691 7.91818 42.2536C7.72019 42.0382 7.63821 41.795 7.67226 41.5241C7.70631 41.2533 7.83695 41.0308 8.06417 40.8567L12.259 37.6428C12.4862 37.4687 12.7488 37.3899 13.0469 37.4063C13.3449 37.4227 13.5929 37.5386 13.7909 37.7541C13.9889 37.9695 14.0745 38.2167 14.0478 38.4955C14.0211 38.7743 13.8941 39.0008 13.6669 39.1749L9.47211 42.3888C9.24489 42.5629 8.97859 42.6378 8.67322 42.6134Z" fill="white"/>
<path d="M8.83264 42.6134C9.13801 42.589 9.38969 42.4691 9.58768 42.2536C9.78567 42.0382 9.86765 41.795 9.8336 41.5241C9.79955 41.2533 9.66891 41.0308 9.44169 40.8567L5.24689 37.6428C5.01967 37.4687 4.75704 37.3899 4.45901 37.4063C4.16097 37.4227 3.91295 37.5386 3.71496 37.7541C3.51697 37.9695 3.43133 38.2167 3.45805 38.4955C3.48476 38.7743 3.61173 39.0008 3.83895 39.1749L8.03375 42.3888C8.26097 42.5629 8.52726 42.6378 8.83264 42.6134Z" fill="white"/>
</svg>
